<?xml version="1.0" standalone="no"?>
<!DOCTYPE svg PUBLIC "-//W3C//DTD SVG 20010904//EN"
 "http://www.w3.org/TR/2001/REC-SVG-20010904/DTD/svg10.dtd">
<svg version="1.0" xmlns="http://www.w3.org/2000/svg"
 width="300.000000pt" height="226.000000pt" viewBox="0 0 300.000000 226.000000"
 preserveAspectRatio="xMidYMid meet">
<metadata>
Created by potrace 1.10, written by Peter Selinger 2001-2011
</metadata>
<g transform="translate(0.000000,226.000000) scale(0.100000,-0.100000)"
fill="#000000" stroke="none">
<path d="M925 1940 c-72 -11 -133 -29 -141 -41 -4 -7 0 -9 12 -5 46 14 115 25
192 32 45 3 82 11 82 15 0 10 -73 10 -145 -1z"/>
<path d="M1265 1922 c8 -7 172 -74 220 -90 6 -2 -9 8 -33 23 -24 15 -55 31
-70 35 -15 5 -49 16 -77 25 -27 8 -45 11 -40 7z"/>
<path d="M882 1885 c-46 -7 -89 -18 -95 -25 -9 -10 -7 -11 8 -6 40 11 199 34
211 29 7 -2 15 0 19 6 8 14 -36 13 -143 -4z"/>
<path d="M665 1852 c-145 -76 -377 -347 -360 -419 3 -12 1 -25 -5 -28 -6 -3
-7 1 -4 9 3 9 4 16 1 16 -13 0 -46 -113 -57 -189 -16 -116 1 -316 35 -419 66
-196 233 -381 426 -472 119 -55 203 -70 394 -69 195 0 244 12 381 90 128 74
302 255 292 306 -2 10 -10 3 -23 -22 -22 -43 -60 -59 -50 -22 5 18 3 16 -13
-6 -11 -16 -50 -64 -88 -107 -82 -93 -189 -162 -309 -200 -76 -25 -87 -26
-225 -19 -122 6 -160 12 -240 38 -251 81 -426 245 -522 487 -27 68 -32 95 -36
197 -6 145 9 245 52 346 74 176 190 300 371 398 75 41 52 43 -32 4 -73 -35
-215 -166 -275 -253 -21 -32 -41 -58 -44 -58 -2 0 3 11 12 25 8 13 12 30 8 36
-5 8 -3 9 6 4 8 -5 11 -4 6 3 -6 11 125 149 199 210 22 19 31 30 20 27 -37
-12 48 53 107 82 32 15 58 31 58 36 0 12 -12 8 -85 -31z m-137 -133 c-26 -22
-68 -63 -94 -92 -25 -29 -41 -42 -35 -29 16 30 149 162 164 162 7 0 -9 -18
-35 -41z m1175 -1123 c7 4 7 1 -1 -7 -7 -8 -16 -14 -20 -14 -4 0 -29 -24 -57
-53 -27 -30 -58 -58 -70 -64 -11 -6 14 25 55 68 41 44 77 76 78 72 2 -5 9 -5
15 -2z"/>
<path d="M1222 1874 c4 -3 21 -8 40 -11 18 -2 75 -24 127 -49 106 -50 114 -52
77 -23 -35 27 -189 89 -223 89 -14 0 -24 -3 -21 -6z"/>
<path d="M688 1824 c-27 -13 -48 -26 -48 -29 0 -6 72 25 95 41 31 22 5 15 -47
-12z"/>
<path d="M815 1833 c-59 -19 -43 -30 20 -14 24 6 77 11 117 11 51 0 68 3 58
10 -23 15 -139 11 -195 -7z"/>
<path d="M1190 1835 c0 -2 31 -13 69 -25 37 -11 93 -33 124 -50 31 -16 58 -26
61 -21 6 9 -130 74 -189 90 -43 12 -65 14 -65 6z"/>
<path d="M1660 1617 c0 -8 7 -21 16 -28 23 -19 81 -113 109 -174 50 -114 59
-162 60 -317 0 -82 3 -148 7 -148 14 0 20 140 10 230 -14 117 -43 215 -88 297
-39 70 -114 162 -114 140z"/>
<path d="M1748 1577 c33 -35 89 -165 117 -272 20 -78 25 -123 26 -229 1 -109
3 -124 11 -86 13 62 1 233 -22 327 -25 98 -114 283 -137 283 -14 0 -13 -4 5
-23z"/>
<path d="M1683 1498 c73 -131 85 -159 103 -235 13 -56 18 -117 17 -215 0 -76
4 -135 8 -132 17 10 11 311 -7 371 -18 63 -65 157 -113 226 -45 66 -49 58 -8
-15z"/>
<path d="M1055 1532 c-33 -7 -70 -38 -91 -77 -15 -28 -24 -35 -39 -30 -54 14
-97 17 -124 6 -48 -21 -68 -88 -45 -154 17 -48 17 -47 2 -47 -23 0 -86 -52
-98 -80 -7 -16 -9 -42 -5 -59 7 -31 59 -85 94 -96 17 -5 19 -10 11 -31 -28
-73 -6 -157 46 -170 25 -7 96 0 126 11 10 4 19 -3 28 -25 18 -43 75 -90 110
-90 35 0 79 36 105 84 14 25 24 34 35 30 8 -4 40 -9 70 -11 46 -4 60 -1 83 17
27 21 28 27 25 84 -2 33 -7 68 -11 76 -5 11 3 21 29 35 110 59 111 160 3 216
-34 17 -38 22 -29 39 15 29 12 117 -6 145 -19 30 -77 40 -135 25 -38 -11 -45
-10 -54 5 -46 79 -84 107 -130 97z m59 -43 c48 -38 68 -99 32 -99 -7 0 -27
-11 -45 -24 -29 -22 -35 -23 -48 -10 -8 8 -29 22 -46 31 -18 8 -34 17 -36 19
-7 6 41 74 62 89 29 20 49 19 81 -6z m-188 -92 c4 -3 0 -32 -8 -64 -13 -54
-16 -58 -48 -65 -19 -4 -47 -10 -61 -13 -18 -5 -26 -3 -26 7 -1 7 -4 34 -8 59
-6 40 -4 50 15 69 19 19 30 22 76 18 30 -3 57 -7 60 -11z m424 -7 c21 -21 25
-62 11 -110 -8 -26 -14 -27 -85 -13 -37 7 -41 12 -52 53 -6 25 -13 51 -15 59
-9 32 110 42 141 11z m-323 -48 l23 -14 -25 -20 c-22 -17 -95 -37 -95 -26 0 3
5 20 11 39 6 19 13 40 15 47 4 13 20 8 71 -26z m166 1 c3 -16 9 -37 13 -47 7
-17 4 -19 -31 -13 -21 3 -48 16 -61 28 l-23 21 42 23 c23 12 45 21 48 19 4 -2
9 -16 12 -31z m-18 -123 c44 -43 45 -45 45 -110 0 -64 -1 -67 -43 -108 -41
-41 -45 -42 -107 -42 -62 0 -66 1 -107 42 -42 41 -43 44 -43 108 1 53 5 70 24
93 43 53 76 68 134 64 47 -3 58 -9 97 -47z m-224 19 c-24 -22 -37 -20 -28 6 4
8 16 15 29 15 l22 0 -23 -21z m269 1 c0 -11 -3 -20 -8 -20 -4 0 -13 9 -20 20
-11 18 -10 20 8 20 13 0 20 -7 20 -20z m-319 -23 c-9 -39 -32 -77 -46 -77 -5
1 -19 20 -31 43 l-20 42 40 11 c64 18 65 18 57 -19z m403 17 c20 -3 36 -8 36
-10 0 -2 -13 -23 -28 -48 l-28 -44 -22 32 c-25 37 -30 91 -8 83 8 -3 31 -9 50
-13z m-514 -37 c0 -7 11 -28 23 -47 l24 -34 -26 -52 c-14 -29 -29 -53 -32 -53
-12 -2 -73 45 -91 70 -26 34 -13 67 43 107 41 31 59 33 59 9z m644 -26 c50
-42 35 -101 -36 -141 l-38 -21 -10 27 c-6 14 -19 37 -29 50 -19 24 -19 25 11
79 l29 55 27 -17 c15 -9 35 -24 46 -32z m-534 -63 c0 -29 -2 -31 -15 -17 -9 9
-13 23 -9 32 10 28 24 19 24 -15z m0 -105 l0 -32 -47 16 c-56 19 -61 22 -47
31 6 4 19 23 29 42 l18 34 23 -29 c14 -18 24 -43 24 -62z m419 35 l22 -37 -48
-14 c-48 -14 -48 -14 -51 10 -4 26 37 99 48 86 4 -4 17 -25 29 -45z m-361 -73
c-11 -12 -38 8 -38 28 l0 21 22 -21 c12 -13 19 -25 16 -28z m262 26 c0 -18
-27 -37 -38 -26 -5 4 26 45 35 45 1 0 3 -9 3 -19z m-352 -34 c29 -7 42 -16 42
-27 0 -10 6 -36 14 -58 l15 -40 -48 -12 c-54 -13 -94 -2 -110 29 -14 25 -14
46 0 94 8 31 14 37 27 31 9 -3 36 -11 60 -17z m500 -75 c-2 -24 -11 -41 -30
-55 -24 -18 -31 -18 -78 -7 -49 12 -52 14 -46 39 3 14 9 40 12 58 6 29 11 33
63 46 l56 14 13 -30 c7 -16 12 -45 10 -65z m-350 40 c12 -8 22 -18 22 -22 0
-8 -70 -53 -79 -52 -3 1 -11 23 -17 49 -7 26 -13 48 -14 49 -4 7 71 -13 88
-24z m179 -25 c-5 -26 -14 -47 -18 -47 -4 0 -26 11 -49 24 l-42 24 29 20 c22
16 70 30 90 27 1 0 -4 -21 -10 -48z m-107 34 c0 -19 -22 -23 -38 -7 -15 15
-14 16 11 16 15 0 27 -4 27 -9z m31 -83 c27 -17 49 -33 49 -36 0 -8 -44 -67
-60 -79 -30 -24 -66 -15 -104 27 -20 22 -36 44 -36 49 0 7 85 68 99 70 2 1 25
-13 52 -31z"/>
<path d="M1014 1209 c-35 -17 -57 -66 -51 -111 19 -139 217 -120 217 20 0 58
-45 102 -103 101 -23 0 -51 -5 -63 -10z m110 -31 c40 -35 43 -78 11 -116 -65
-77 -186 -1 -141 87 29 55 86 67 130 29z"/>
<path d="M1032 1148 c-33 -33 6 -96 52 -84 29 7 45 49 29 75 -13 20 -64 26
-81 9z m58 -23 c15 -18 5 -35 -20 -35 -10 0 -22 5 -25 10 -7 11 12 40 25 40 4
0 13 -7 20 -15z"/>
<path d="M2242 1390 c-41 -25 -66 -81 -58 -130 7 -44 64 -100 103 -101 110 -3
184 -83 168 -181 -27 -156 -262 -157 -291 -2 -5 25 -11 34 -26 34 -18 0 -20
-5 -15 -40 11 -85 95 -154 183 -153 138 2 228 131 180 258 -28 71 -105 125
-181 125 -29 0 -64 27 -76 58 -13 33 4 75 38 97 48 32 123 -4 123 -57 0 -13 8
-18 25 -18 29 0 30 8 11 55 -18 42 -69 75 -116 75 -19 0 -50 -9 -68 -20z"/>
<path d="M2800 1110 c0 -292 1 -300 20 -300 19 0 20 9 22 300 l3 300 -22 0
-23 0 0 -300z"/>
<path d="M2564 991 c-2 -2 -4 -13 -4 -23 0 -16 9 -18 91 -18 87 0 90 1 87 21
-3 20 -9 22 -86 23 -46 0 -86 -1 -88 -3z"/>
</g>
</svg>
